<svg xmlns="http://www.w3.org/2000/svg" viewBox="0 0 80 90" fill="none">
  <path
    d="M12 38c2-18 18-30 28-30s26 12 28 30c1 8-4 12-12 14H24c-8-2-13-6-12-14z"
    fill="#8A6A4A"
    stroke="#2B2620"
    stroke-width="2"
  />
  <path
    d="M24 50c2 8 6 14 16 22 10-8 14-14 16-22"
    fill="#F2E9DC"
    stroke="#2B2620"
    stroke-width="2"
  />
  <path
    d="M32 52c1 6 3 12 8 18M40 52c1 7 2 12 0 18M48 52c-1 6-3 12-8 18"
    stroke="#2B2620"
    stroke-width="1.5"
    stroke-linecap="round"
  />
  <path
    d="M34 70c-1 6 1 14 6 16 5-2 7-10 6-16"
    fill="#F2E9DC"
    stroke="#2B2620"
    stroke-width="2"
  />
</svg>
